<?xml version="1.0" encoding="UTF-8"?>
<!DOCTYPE svg PUBLIC "-//W3C//DTD SVG 1.1//EN" "http://www.w3.org/Graphics/SVG/1.1/DTD/svg11.dtd">
<svg version="1.1" xmlns="http://www.w3.org/2000/svg" xmlns:xlink="http://www.w3.org/1999/xlink" x="0" y="0" width="1615" height="1549" viewBox="0, 0, 1615, 1549">
  <defs>
    <clipPath id="Clip_1">
      <path d="M-0,0.46 L1614.64,0.46 L1614.64,1548.94 L-0,1548.94 z"/>
    </clipPath>
  </defs>
  <g id="Layer_1">
    <g clip-path="url(#Clip_1)">
      <path d="M1321.2,848.779 C1321.69,844.667 1322.15,840.763 1322.66,836.504 C1326.55,842.225 1326.31,843.999 1321.2,848.779 z M1269.75,1484.14 C1262.01,1486.68 1254.51,1489.88 1247.46,1494 C1244.55,1495.7 1243.64,1495.23 1243.39,1491.8 C1241.73,1469.4 1239.94,1447 1238.13,1424.6 C1235.62,1393.58 1233.11,1362.56 1230.5,1331.55 C1228.12,1303.19 1225.61,1274.84 1223.13,1246.49 C1222.6,1240.52 1222.03,1234.56 1221.33,1228.61 C1221.03,1226.15 1221.45,1225.07 1224.31,1225.17 C1230.64,1225.4 1236.99,1225.52 1243.3,1225.13 C1246.81,1224.91 1247.4,1226.57 1247.76,1229.29 C1249.83,1244.8 1252.09,1260.28 1254.07,1275.8 C1258.05,1306.99 1262.13,1338.18 1265.74,1369.43 C1269.26,1399.84 1272.47,1430.3 1273.94,1460.91 C1273.94,1466.74 1273.9,1472.57 1273.95,1478.4 C1273.98,1481.43 1272.79,1483.14 1269.75,1484.14 z M1557.95,694.324 C1599.72,596.414 1618.77,494.158 1613.9,387.725 C1611.49,335.084 1601.5,283.777 1583.73,234.088 C1565.81,183.982 1540.83,138.334 1501.26,101.589 C1466.91,69.692 1428.29,45.084 1383.92,29.601 C1364.38,22.783 1343.9,20 1323.96,14.902 C1267.73,0.528 1210.88,-4.589 1153.37,6.36 C1082.2,19.907 1023.88,54.924 978.773,111.747 C952.748,144.531 936.05,182.078 923.031,221.438 C900.281,290.219 890.758,360.93 892.686,433.271 C893.902,478.88 899.985,523.78 912.176,567.787 C925.474,615.791 945.411,660.68 975.122,700.927 C993.244,725.476 1014.38,747.063 1039,765.141 C1041.84,767.226 1042.32,768.527 1039.78,771.082 C1037.09,773.789 1034.73,776.833 1032.26,779.751 C1031.22,780.973 1030.24,781.755 1028.43,780.947 C1021.61,777.898 1014.72,774.975 1007.85,772.036 C1006.46,771.444 1006.07,770.155 1005.44,768.999 C998.349,755.895 987.966,746.48 973.92,741.362 C971.591,740.514 970.884,739.447 970.941,737.088 C971.09,730.926 971.056,724.757 970.972,718.593 C970.89,712.578 968.013,709.52 962.119,709.507 C933.125,709.443 904.13,709.443 875.135,709.508 C869.551,709.52 866.537,712.595 866.379,718.211 C866.237,723.206 866.347,728.208 866.347,733.207 C866.347,743.143 866.347,743.143 856.594,743.143 C721.119,743.143 585.644,743.142 450.168,743.144 C426.655,743.144 408.708,757.661 404.053,780.658 C398.675,807.228 393.456,833.83 388.168,860.417 C385.364,874.518 382.561,888.62 379.626,903.379 C354.07,886.12 326.8,874.203 297.355,867.551 C267.683,860.848 237.754,859.639 207.59,864.098 C177.645,868.525 149.546,878.152 123.218,893.053 C96.679,908.073 73.782,927.435 54.577,951.071 C-16.076,1038.03 -18.372,1162.48 49.095,1250.97 C83.166,1295.65 127.323,1325.85 181.805,1339.64 C251.138,1357.19 316.287,1345.97 378.348,1306.85 C378.348,1321.55 378.031,1334.99 378.403,1348.41 C379.9,1402.31 381.678,1456.21 383.206,1510.11 C383.799,1531.01 400.867,1548.18 421.673,1548.18 C606.472,1548.21 791.272,1548.2 976.071,1548.18 C993.443,1548.18 1009.02,1535.77 1013.21,1518.87 C1015.04,1511.51 1014.66,1503.96 1014.9,1496.52 C1016.72,1441.12 1018.33,1385.72 1019.98,1330.33 C1021.11,1292.22 1022.16,1254.12 1023.29,1216.02 C1024.49,1175.43 1025.74,1134.84 1026.99,1094.25 C1027.63,1073.79 1028.61,1053.34 1028.88,1032.87 C1029.11,1016.4 1030.33,999.953 1029.81,983.453 C1028.98,957.024 1023.94,931.252 1018.5,905.511 C1016.83,897.621 1015.45,889.674 1013.85,881.346 C1022.43,883.244 1030.3,883.926 1038.3,882.769 C1051.31,880.889 1061.1,873.244 1070.76,865.211 C1090.79,848.553 1108.64,829.756 1126.15,808.808 C1126.15,811.578 1126.15,813.047 1126.15,814.517 C1126.07,847.824 1125.97,881.131 1128.11,914.395 C1128.24,916.374 1128.91,919.031 1127.92,920.24 C1124.38,924.612 1124.56,929.892 1123.65,934.853 C1123.08,937.917 1122.44,939.87 1118.87,940.489 C1116.19,940.953 1114.54,943.343 1114.02,946.248 C1112.48,954.925 1110.83,963.582 1109.33,972.267 C1108.78,975.479 1109.79,978.533 1112.64,980.049 C1115.38,981.502 1115.32,983.288 1114.86,985.726 C1113.57,992.59 1112.37,999.472 1111.18,1006.35 C1102.67,1055.52 1094.18,1104.69 1085.67,1153.85 C1083.21,1168.11 1080.65,1182.35 1078.25,1196.61 C1077.18,1202.94 1078.61,1205.48 1084.31,1208.14 C1086.11,1208.99 1087.98,1209.69 1089.85,1210.38 C1103.96,1215.63 1118.63,1218.51 1133.51,1220.32 C1137.5,1220.8 1139.42,1222.05 1139.97,1226.38 C1142.85,1249.5 1146.22,1272.55 1149.12,1295.66 C1153.11,1327.53 1157.11,1359.41 1160.59,1391.34 C1163.68,1419.63 1166.72,1447.95 1166.37,1476.49 C1166.32,1480.71 1165.48,1483.11 1160.82,1484.72 C1148.06,1489.11 1135.81,1494.78 1125.5,1503.81 C1109.24,1518.05 1113.11,1537.96 1133.51,1545.03 C1142.43,1548.11 1151.74,1548.9 1161.07,1548.99 C1184.3,1549.2 1207.18,1545.87 1229.97,1541.77 C1231.43,1541.51 1232.73,1541.02 1234.27,1541.89 C1244.93,1547.95 1256.76,1548.82 1268.59,1548.95 C1295.01,1549.25 1320.97,1545.04 1346.79,1539.93 C1352.35,1538.83 1354.41,1536.06 1354.03,1530.4 C1353.55,1523.09 1352.84,1515.8 1352.26,1508.5 C1348.47,1460.55 1344.87,1412.59 1340.85,1364.66 C1336.88,1317.22 1332.52,1269.82 1328.22,1222.41 C1327.91,1219.07 1328.79,1217.8 1332.17,1217.22 C1342.5,1215.45 1352.61,1212.74 1362.23,1208.46 C1368.96,1205.47 1370.24,1203.18 1369,1196 C1362.56,1158.64 1356.04,1121.29 1349.57,1083.93 C1347.99,1074.82 1346.46,1065.7 1344.86,1056.32 C1371.4,1063.1 1397.8,1064.71 1424.3,1064.13 C1452.15,1063.52 1468.59,1049.12 1474.35,1021.76 C1476.66,1010.78 1477.1,999.641 1477.21,988.49 C1477.28,981.685 1478.81,975.903 1483.21,970.175 C1496.45,952.94 1506.75,933.946 1513.54,913.21 C1521.99,887.403 1524.24,861.482 1514.1,835.533 C1507.76,819.276 1498.14,805.362 1483.79,794.664 C1486.89,792.144 1489.8,789.954 1492.52,787.539 C1521.66,761.623 1542.79,729.864 1557.95,694.324" fill="#6E4100"/>
    </g>
    <path d="M813.118,657.455 C807.185,657.506 804.375,655.214 803.066,649.366 C800.525,638.018 797.861,626.696 795.455,615.32 C794.926,612.821 793.879,611.768 791.422,611.121 C782.269,608.712 773.226,605.881 764.069,603.484 C759.114,602.188 757.321,598.805 757.387,594.289 C757.453,589.809 759.242,586.466 764.239,585.221 C773.1,583.015 781.832,580.3 790.661,577.96 C793.504,577.206 795.011,575.988 795.647,572.819 C797.933,561.423 800.648,550.113 803.186,538.767 C804.319,533.703 807.26,531.399 812.745,531.333 C818.292,531.266 821.535,533.443 822.661,538.365 C825.253,549.697 827.81,561.039 830.164,572.422 C830.811,575.548 832.113,577.167 835.337,577.979 C844.192,580.208 852.913,582.966 861.753,585.263 C866.675,586.542 868.544,589.875 868.483,594.426 C868.423,598.898 866.763,602.258 861.709,603.519 C852.849,605.73 844.166,608.645 835.304,610.844 C831.961,611.673 830.817,613.431 830.178,616.483 C827.865,627.54 825.372,638.559 822.912,649.585 C821.691,655.058 818.723,657.406 813.118,657.455" fill="#FFCF00"/>
    <path d="M478.835,1164.28 C498.488,1229.47 537.463,1277.94 597.78,1308.23 C644.792,1331.83 694.595,1337.7 745.922,1326.85 C848.977,1305.06 924.06,1215.33 925.914,1108.7 C927.832,998.371 852.683,907.541 752.215,883.532 C692.842,869.344 636.068,877.489 583.335,908.536 C530.637,939.562 496.443,985.38 478.815,1044.93 C473.431,1024.06 465.977,1005.18 456.079,987.308 C441.324,960.67 422.423,937.393 398.834,918.077 C395.2,915.102 394.016,912.557 395.016,907.674 C403.594,865.813 411.744,823.865 420.128,781.964 C423.028,767.467 439.391,756.53 453.663,759.082 C456.699,759.625 455.357,761.53 455.143,762.776 C453.679,771.336 452.864,779.93 453.047,788.623 C453.207,796.175 454.202,803.564 457.34,810.502 C462.694,822.339 472.026,828.247 484.93,828.266 C529.586,828.329 574.242,828.29 618.898,828.29 C699.546,828.29 780.194,828.335 860.841,828.176 C865.47,828.166 867.014,829.406 866.392,833.875 C866.095,836 866.336,838.2 866.341,840.366 C866.362,848.912 868.831,851.446 877.25,851.451 C902.744,851.464 928.238,851.506 953.732,851.394 C957.055,851.379 959.746,852.168 962.477,854.087 C972.547,861.162 982.771,868.019 993.856,873.457 C995.277,874.154 996.11,874.99 996.433,876.711 C1003.9,916.54 1014.98,955.868 1013.94,996.901 C1012.97,1034.49 1011.51,1072.08 1010.36,1109.66 C1009.5,1137.61 1008.82,1165.57 1007.98,1193.51 C1006.77,1234.27 1005.45,1275.02 1004.24,1315.77 C1003.11,1353.54 1002.11,1391.31 1000.98,1429.07 C1000.15,1456.35 999.265,1483.62 998.269,1510.89 C997.858,1522.17 987.706,1531.88 976.394,1532.2 C975.228,1532.23 974.061,1532.2 972.895,1532.2 C790.104,1532.2 607.314,1532.2 424.524,1532.2 C408.958,1532.2 399.69,1523.27 399.227,1507.72 C397.825,1460.64 396.456,1413.56 395.064,1366.48 C394.411,1344.35 393.819,1322.22 392.979,1300.1 C392.855,1296.84 394.044,1295.03 396.399,1293.1 C437.552,1259.3 464.873,1216.59 478.835,1164.28" fill="#FEFEFE"/>
    <path d="M1166.03,20.532 C1201.83,14.805 1237.57,15.909 1273.38,20.972 C1296.98,24.31 1319.75,31.411 1343.09,35.729 C1396.93,45.685 1442.43,71.545 1483.3,106.944 C1526.88,144.691 1552.95,193.279 1571.13,246.902 C1583.31,282.797 1591.2,319.601 1595.33,357.272 C1597.56,377.646 1598.86,398.071 1598.88,418.532 C1598.93,484.003 1589.33,548.126 1570.82,610.901 C1561.64,642.041 1551.29,672.82 1536.68,701.88 C1523.59,727.902 1507.34,751.829 1485.91,771.896 C1484.33,773.374 1482.61,774.692 1481,776.142 C1473.74,782.701 1466.45,788.05 1455.78,782.658 C1452.28,780.886 1447.66,781.17 1443.53,780.832 C1440.72,780.603 1439.92,779.672 1440.37,776.783 C1442.8,761.35 1441.76,760.296 1426.39,758.255 C1413.54,756.549 1400.77,754.214 1387.94,752.375 C1385.12,751.972 1384.62,750.226 1383.87,748.125 C1378.04,731.837 1372.41,715.467 1365.03,699.789 C1359.97,689.041 1353.68,679.063 1345.61,670.277 C1341.83,666.154 1341.81,666.198 1346.93,664.239 C1372.02,654.63 1394.98,641.438 1415.33,623.771 C1445.08,597.935 1465.63,565.928 1478.98,529.099 C1481.41,522.383 1483.41,515.504 1485.45,508.652 C1486.15,506.294 1487.08,505.26 1489.84,505.156 C1518.46,504.075 1534.89,487.835 1537.28,458.972 C1538.2,447.873 1537.59,437.022 1534.04,426.463 C1528.88,411.116 1517.42,402.983 1501.16,403.36 C1497.22,403.451 1496.4,402.359 1495.92,398.528 C1486.67,324.847 1461.8,258.425 1405.91,206.595 C1394.39,195.915 1381.79,186.663 1368.42,178.445 C1366.59,177.323 1364.62,176.743 1366.39,173.657 C1369.03,169.045 1367.82,164.692 1364.01,162.433 C1360.12,160.129 1355.74,161.181 1352.72,165.509 C1346.81,173.984 1340.59,182.205 1334.02,190.178 C1303.05,227.778 1266.02,258.104 1223.55,281.782 C1174.84,308.938 1122.16,325.199 1068.07,337.311 C1042.21,343.101 1016.06,346.978 989.434,346.182 C979.948,345.899 970.549,344.632 961.342,342.176 C955.148,340.524 951.558,341.976 949.916,346.704 C948.272,351.434 950.237,355.233 956.177,357.173 C959.331,358.203 958.804,359.744 958.317,362.009 C953.156,386.011 950.217,410.218 951.456,434.837 C953.586,477.143 961.896,517.907 980.953,556.107 C1007.8,609.917 1050.27,645.859 1106.41,666.258 C1109.07,667.223 1111.75,668.133 1114.41,669.083 C1114.71,669.193 1114.99,669.392 1115.77,669.811 C1094.87,695.514 1076.28,722.81 1056.5,749.232 C1053.66,748.064 1051.54,745.886 1049.37,743.862 C1021.8,718.141 999.716,688.325 982.379,654.86 C956.831,605.548 942.648,552.893 935.708,498.076 C933.407,479.907 932.653,461.618 931.459,443.353 C930.333,426.129 931.163,409.029 932.029,391.971 C934.545,342.382 942.763,293.675 957.281,246.103 C965.274,219.913 974.929,194.395 987.33,169.949 C989.368,165.931 991.622,162.039 993.866,158.143 C996.772,153.095 997.981,152.782 1002.9,155.903 C1016.61,164.605 1030.91,172.045 1046.59,176.55 C1064.03,181.56 1081.59,183.044 1099.34,178.159 C1102.25,177.36 1105.1,176.467 1107.97,174.897 C1099.58,174.177 1091.6,172.461 1083.89,169.695 C1058.88,160.73 1045.02,142.613 1041.01,116.694 C1038.1,97.796 1037.95,97.48 1051.84,84.372 C1079.82,57.974 1111.82,37.924 1148.15,25.007 C1151.11,23.954 1154.24,23.334 1157.28,22.493 C1160.24,22.044 1163.14,21.348 1166.03,20.532" fill="#DCBF5C"/>
    <path d="M1521.7,450.754 C1521.58,455.938 1521.14,461.074 1519.98,466.119 C1516.24,482.44 1502.3,491.36 1484.3,489.007 C1476.18,487.947 1473.97,489.477 1471.95,497.359 C1460.94,540.356 1441.35,578.471 1408.1,608.682 C1379.59,634.584 1345.82,650.276 1308.69,659.298 C1282.52,665.653 1255.94,668.458 1229.06,668.79 C1193.08,669.234 1157.6,665.569 1123.13,654.885 C1048.56,631.769 1001.06,581.947 979.221,507.398 C968.971,472.414 965.354,436.605 968.306,400.245 C969.288,388.138 971.872,376.226 974.242,364.311 C974.648,362.267 975.349,361.136 977.819,361.338 C1024.78,365.174 1069.82,354.74 1114.46,342.246 C1161.84,328.987 1207.61,311.69 1249.46,285.238 C1288.95,260.286 1323.57,229.904 1352.3,192.989 C1354.9,189.648 1356.52,189.943 1359.73,191.927 C1409.69,222.791 1442.56,267.109 1461.97,321.903 C1472.41,351.35 1479.1,381.654 1480.94,412.932 C1481.33,419.483 1485.35,422.368 1491.77,420.827 C1510.5,416.331 1519.56,422.947 1521.15,442.297 C1521.38,445.112 1521.52,447.935 1521.7,450.754" fill="#FEF8EA"/>
    <path d="M739.189,897.312 C750.243,898.976 760.898,902.084 771.279,906.182 C774.756,913.354 777.749,914.585 786.184,912.309 C804.919,920.598 821.998,931.444 837.118,945.312 C835.471,946.527 833.95,945.343 832.383,945.06 C828.36,944.335 823.953,946.404 822.296,949.8 C820.695,953.08 821.443,957.979 823.927,960.486 C826.533,963.117 831.174,963.755 834.548,961.947 C838.228,959.975 840.122,956.018 839.352,951.923 C839.058,950.364 837.87,948.832 839.198,947.219 C854.788,960.361 867.552,975.889 878.084,993.3 C877.378,994.492 876.131,995.02 875.073,995.794 C870.133,999.411 869.156,1004.6 872.527,1009.09 C875.764,1013.41 880.719,1013.91 885.533,1010.39 C886.063,1010 886.537,1009.54 887.168,1009.31 C905.09,1044.56 912.169,1081.92 909.316,1122.43 C901.811,1117.68 894.346,1114.75 887.191,1111.16 C886.47,1109.58 887.383,1108.25 887.919,1106.9 C889.47,1102.99 889.147,1099.29 886.198,1096.26 C883.555,1093.54 880.083,1092.74 876.559,1094.24 C872.727,1095.87 870.72,1099.01 870.612,1103.25 C870.587,1104.24 870.734,1105.25 870.183,1106.16 C860.604,1104 850.865,1102.96 841.107,1102.07 C840.02,1101.26 839.42,1100.09 838.765,1098.94 C836.741,1095.39 833.886,1093.06 829.564,1093.66 C825.281,1094.25 822.257,1096.48 821.369,1100.99 C821.206,1101.82 820.795,1102.52 820.221,1103.14 C799.977,1105.56 782.945,1115.54 766.046,1125.95 C756.008,1132.14 745.807,1138.08 735.055,1142.99 C730.072,1142.44 725.543,1142.91 723.191,1148.27 C714.79,1151.76 706.346,1155.16 698.002,1158.79 C691.893,1161.44 686.173,1164.85 681.099,1169.19 C679.375,1170.67 677.927,1171.02 675.761,1170.29 C664.119,1166.34 652.798,1161.7 642.157,1155.49 C641.388,1154.55 641.156,1153.45 640.957,1152.27 C639.531,1143.85 633.841,1141.03 626.112,1144.91 C625.213,1145.36 624.332,1145.81 623.339,1145.99 C606.433,1137.34 589.165,1129.72 570.363,1126.04 C543.957,1120.86 517.645,1119.39 491.49,1127.34 C489.054,1128.08 488.156,1127.66 488.199,1125.08 C488.271,1120.76 486.781,1116.52 487.51,1112.17 C491.276,1108.22 493.403,1103.8 491.148,1098.32 C490.436,1096.59 489.591,1094.14 487.358,1097.25 C488.077,1071.74 493.313,1047.17 503.287,1023.71 C526.322,969.543 565.258,931.27 619.436,908.416 C620.349,908.031 621.32,907.783 622.264,907.472 C623.505,908.093 624.054,909.36 624.933,910.319 C627.343,912.948 630.295,914.147 633.802,913.147 C637.531,912.084 640.219,909.865 640.828,905.764 C641.066,904.157 640.912,902.442 642.175,901.137 C653.208,897.278 664.64,895.468 676.235,894.493 C676.565,896.8 674.557,897.948 673.661,899.644 C671.443,903.841 672.453,908.914 676.126,911.683 C679.666,914.352 684.557,913.966 687.913,910.753 C691.09,907.712 691.388,902.215 688.604,898.478 C687.454,896.935 685.917,896.103 684.065,895.707 C682.653,895.404 681.03,895.588 680.05,894.151 C691.873,892.444 703.742,892.999 715.568,893.831 C719.118,894.081 722.872,893.603 726.296,895.175 C725.943,896.925 724.366,897.828 723.493,899.226 C721.059,903.124 721.274,906.815 724.222,910.253 C727.036,913.535 731.276,914.417 735.049,912.505 C738.894,910.556 740.78,906.79 740.166,902.581 C739.907,900.808 738.511,899.249 739.189,897.312" fill="#9D9D9D"/>
    <path d="M1335.71,821.088 C1330.9,804.941 1326.42,789.983 1322,775.007 C1320.68,770.541 1318.2,767.594 1313.17,767.886 C1309.02,768.126 1306.14,771.201 1305.97,775.37 C1305.94,776.361 1305.8,777.505 1306.2,778.334 C1314.17,794.597 1309.5,811.221 1307.68,827.756 C1305.86,844.297 1303.96,860.829 1302.18,877.375 C1301.96,879.387 1301.67,881.295 1300.75,883.116 C1295.23,893.938 1290.74,905.197 1286.88,916.699 C1286.05,919.193 1285.02,920.414 1282.11,920.507 C1237.67,921.926 1193.23,921.747 1148.8,919.877 C1144.93,919.714 1144.28,918.372 1144.06,914.909 C1141.42,873.156 1142.44,831.348 1141.97,789.564 C1141.93,786.072 1141.86,782.573 1141.59,779.093 C1141.22,774.299 1137.98,771.18 1133.62,771.162 C1129.01,771.144 1125.64,774.395 1125.72,779.526 C1125.78,782.969 1124.55,785.429 1122.46,788.008 C1101.98,813.293 1080.11,837.154 1054.64,857.644 C1042.24,867.616 1029.16,869.595 1014.48,864.706 C999.142,859.594 985.854,850.773 972.783,841.592 C969.311,839.153 970.359,832.935 974.258,831.411 C990.488,825.067 1003.2,815.122 1008.42,797.671 C1010.55,790.562 1010.45,790.532 1017.52,793.644 C1019.65,794.58 1021.78,795.504 1023.91,796.436 C1033.86,800.793 1034.39,800.887 1041.95,792.824 C1058.05,775.652 1071.35,756.262 1085.21,737.329 C1099.76,717.451 1114,697.346 1129.69,678.323 C1132.06,675.454 1134.13,674.277 1138.01,675.409 C1146.31,677.829 1154.87,679.248 1163.44,680.382 C1165.83,680.698 1167.34,681.382 1168,683.979 C1174.91,711.181 1198.13,723.008 1227.43,718.755 C1246.88,715.933 1259.94,705.19 1265.05,685.787 C1265.68,683.404 1266.72,682.585 1269.06,682.352 C1286.47,680.616 1303.65,677.504 1320.49,672.744 C1323.53,671.884 1325.22,673.199 1327.12,674.813 C1339.73,685.569 1347.72,699.477 1354,714.504 C1360.4,729.832 1365.87,745.508 1371.39,761.169 C1373.16,766.174 1370.83,770.68 1370.89,775.423 C1370.95,780.794 1367.56,783.598 1363.66,786.455 C1351.69,795.234 1341.47,805.564 1335.71,821.088" fill="#FEFEFE"/>
    <path d="M1154.8,984.023 C1149.88,988.639 1145.73,992.408 1141.72,996.316 C1137.09,1000.82 1136.9,1004.31 1140.94,1009.39 C1147.68,1017.87 1154.46,1026.31 1161.25,1034.74 C1163.25,1037.22 1165.28,1039.64 1168.99,1039.45 C1172.75,1039.27 1171.17,1042.2 1171.02,1043.72 C1169.68,1056.8 1168.14,1069.86 1166.68,1082.92 C1165,1097.98 1163.27,1113.02 1161.68,1128.09 C1161.1,1133.67 1163.71,1136.87 1169.49,1137.49 C1177.1,1138.31 1184.74,1138.95 1192.39,1139.36 C1199.02,1139.72 1201.57,1137.09 1202.15,1130.28 C1203.13,1118.67 1204.19,1107.07 1205.26,1095.46 C1206.3,1084.07 1207.39,1072.68 1208.53,1060.54 C1210.98,1065.21 1211.74,1069.78 1213.07,1074.11 C1216.03,1083.81 1218.75,1093.58 1221.66,1103.29 C1223.64,1109.9 1227.07,1111.87 1233.67,1110.13 C1240.1,1108.43 1246.48,1106.58 1252.87,1104.72 C1260.05,1102.61 1261.97,1099.17 1259.81,1092.01 C1254.98,1075.94 1250.14,1059.86 1245.1,1043.85 C1244.15,1040.83 1244.52,1039.11 1246.73,1036.56 C1254.7,1027.38 1262.18,1017.79 1269.7,1008.23 C1272.63,1004.5 1272.2,1000.55 1268.69,997.042 C1264.63,992.971 1260.38,989.079 1255.62,984.544 C1263.03,984.174 1269.59,983.9 1276.15,983.49 C1278.64,983.335 1278.74,984.955 1278.96,986.658 C1282.74,1015.64 1298.55,1035.82 1324.41,1048.55 C1326.82,1049.74 1327.73,1051.24 1328.16,1053.79 C1335.94,1099.2 1343.76,1144.61 1351.78,1189.98 C1352.51,1194.14 1351.54,1195.82 1347.56,1197.01 C1328.15,1202.82 1308.22,1205.52 1288.13,1207.2 C1256.38,1209.87 1224.55,1209.79 1192.76,1208.95 C1162.13,1208.16 1131.55,1206.2 1101.88,1197.51 C1094.85,1195.45 1094.82,1195.37 1096.06,1188.21 C1107.69,1121.01 1119.38,1053.82 1130.85,986.588 C1131.48,982.893 1132.86,982.493 1135.94,982.779 C1141.83,983.327 1147.76,983.577 1154.8,984.023" fill="#B9DEFE"/>
    <path d="M242.776,1331.38 C116.857,1331.38 15.98,1229.84 16.168,1102.98 C16.349,980.14 117.318,875.794 246.379,877.521 C369.406,879.167 469.818,978.926 470.183,1104.57 C470.546,1229.74 368.478,1331.38 242.776,1331.38" fill="#BFBFBF"/>
    <path d="M1406.38,1048.26 C1385.41,1047.13 1364.46,1045.89 1344.33,1039.25 C1322.66,1032.1 1305.4,1019.96 1297.63,997.238 C1292.95,983.555 1294.6,969.594 1295.59,955.691 C1297.99,922.181 1311.41,892.787 1330.14,865.549 C1338.67,853.145 1346.08,840.253 1351.07,826.013 C1353.9,817.957 1359.02,811.454 1365.33,805.844 C1367.69,803.744 1370.01,801.486 1372.7,799.883 C1382.23,794.197 1386.9,786.027 1387.22,774.88 C1387.41,768.462 1387.94,768.466 1394.13,769.435 C1402.68,770.772 1411.2,772.262 1419.77,773.416 C1423.38,773.901 1425.13,775.063 1424.03,778.991 C1423.41,781.219 1423.26,783.577 1422.91,785.88 C1421.68,794.119 1425.07,797.696 1433.46,797.051 C1449.92,795.786 1464.93,799.736 1477.66,810.436 C1491.42,822.006 1499.39,837.182 1503.03,854.597 C1507.83,877.54 1502.61,899.205 1493.71,920.224 C1486.47,937.318 1476.83,953.035 1465.26,967.539 C1463.17,970.157 1462.28,972.885 1461.99,976.174 C1460.79,989.596 1461.47,1003.14 1459.15,1016.49 C1455.42,1037.95 1443.74,1047.99 1421.87,1048.25 C1416.71,1048.32 1411.54,1048.26 1406.38,1048.26" fill="#FEFEFE"/>
    <path d="M1157.93,23.228 C1124.9,33.401 1095.33,49.98 1068.5,71.621 C1059.94,78.526 1051.82,85.922 1044.13,93.795 C1042.7,95.253 1041.38,96.64 1041.35,98.87 C1040.92,124.592 1047.69,147.052 1070.61,161.804 C1082.18,169.255 1095.24,172.454 1108.87,173.452 C1109.66,173.509 1110.45,173.588 1112.12,173.735 C1108.38,177.057 1104.44,178.183 1100.6,179.279 C1077.81,185.786 1055.81,182.164 1034.23,173.796 C1023.17,169.509 1012.82,163.834 1002.84,157.472 C997.61,154.139 997.634,154.119 994.466,159.747 C978.142,188.753 966.482,219.667 957.143,251.504 C944.314,295.239 936.794,339.878 933.942,385.384 C929.357,458.556 936.532,530.267 960.333,599.85 C978.87,654.043 1007.05,702.381 1049.24,741.884 C1051.74,744.227 1055.09,745.796 1056.5,749.234 C1056.02,749.908 1055.43,750.533 1055.07,751.27 C1053.2,755.054 1051.21,754.371 1048.23,752.143 C1017.29,729.022 992.291,700.567 972.14,667.75 C944.657,622.992 927.988,574.183 918.184,522.841 C910.824,484.303 907.584,445.366 908.418,406.179 C910.133,325.528 924.151,247.257 959.348,174.164 C999.08,91.652 1064.69,41.093 1154.57,22.418 C1155.05,22.318 1155.56,22.332 1156.06,22.292 C1157.06,21.858 1158.03,21.463 1157.93,23.228" fill="#FEFEFE"/>
    <path d="M668.699,762.299 C732.69,762.299 796.681,762.346 860.672,762.197 C865.168,762.187 866.557,763.228 866.441,767.877 C866.108,781.201 866.213,794.539 866.399,807.868 C866.447,811.282 865.613,812.461 862.018,812.377 C851.692,812.137 841.357,812.293 831.025,812.293 C717.374,812.293 603.724,812.293 490.073,812.293 C475.689,812.293 470.623,807.795 469.351,793.403 C468.541,784.241 469.315,775.138 470.82,766.046 C471.377,762.68 472.839,762.231 475.727,762.247 C493.391,762.351 511.055,762.299 528.719,762.299 C575.379,762.299 622.039,762.299 668.699,762.299" fill="#BFBFBF"/>
    <path d="M527.802,1137.76 C561.607,1137.9 589.515,1146 615.895,1160.3 C634.874,1170.59 653.928,1180.83 674.917,1186.69 C687.114,1190.1 699.781,1191.16 712.039,1194.26 C723.805,1197.23 735.024,1201.16 742.83,1211.27 C748.406,1218.49 748.339,1218.75 741.176,1224.25 C730.957,1232.11 720.491,1239.5 707.182,1241.04 C694.53,1242.51 682.389,1239.42 670.205,1236.71 C655.385,1233.4 640.454,1230.32 625.326,1234.29 C603.5,1240.01 585.611,1251.23 575.652,1272.43 C573.646,1276.69 572.146,1273.77 570.66,1272.62 C531.401,1242.21 505.465,1203.02 493.294,1154.81 C490.571,1144.03 490.655,1144.02 501.346,1141.16 C511.229,1138.51 521.306,1137.63 527.802,1137.76" fill="#FEFB79"/>
    <path d="M698.813,1315.14 C660.818,1315.87 625.515,1306.13 592.534,1287.4 C588.768,1285.26 588.179,1283.3 589.947,1279.65 C598.714,1261.56 614.186,1252.85 633.016,1249.26 C646.47,1246.7 659.393,1250.9 672.358,1253.71 C687.412,1256.96 702.471,1259.25 717.779,1255.28 C730.154,1252.07 740.463,1245.13 750.395,1237.47 C754.744,1234.12 759.137,1230.82 763.445,1227.42 C782.687,1212.2 803.113,1212.27 824.245,1222.82 C834.791,1228.09 843.708,1235.51 851.616,1244.24 C854.049,1246.93 853.44,1248.43 851.166,1250.76 C816.798,1285.88 775.334,1306.99 726.709,1314.02 C723.255,1314.52 719.771,1314.99 716.289,1315.09 C710.468,1315.27 704.639,1315.14 698.813,1315.14" fill="#FF7E79"/>
    <path d="M864.523,1234.56 C854.7,1223.36 843.345,1213.98 829.735,1207.65 C807.546,1197.34 785.351,1195.47 763.314,1208.21 C762.096,1208.91 760.985,1210.15 759.743,1207.91 C749.462,1189.36 731.973,1182.1 712.534,1177.93 C709.031,1177.18 705.529,1176.43 701.222,1175.5 C705.086,1172.7 708.759,1171.35 712.379,1170.04 C737.338,1161 760.812,1148.92 782.996,1134.49 C814.71,1113.87 847.769,1114.46 881.857,1126.83 C889.69,1129.67 897.005,1133.59 903.98,1138.18 C906.011,1139.51 906.852,1140.67 906.341,1143.37 C900.015,1176.82 886.403,1206.95 865.567,1233.84 C865.375,1234.09 865.027,1234.22 864.523,1234.56" fill="#FEFEFE"/>
    <path d="M1323.97,1402.22 C1310.68,1401.11 1298.79,1400.04 1286.88,1399.18 C1283.71,1398.95 1283.6,1396.65 1283.37,1394.65 C1282.2,1384.44 1281.29,1374.2 1280.13,1363.98 C1278.41,1348.83 1276.65,1333.68 1274.74,1318.56 C1272.66,1302.12 1270.37,1285.7 1268.2,1269.28 C1266.43,1255.97 1265.03,1242.6 1262.79,1229.37 C1262.01,1224.78 1264.28,1224.53 1267.14,1224.38 C1272.44,1224.1 1277.75,1223.8 1283.05,1223.51 C1291.84,1223.03 1300.56,1221.9 1309.31,1221.08 C1311.95,1220.83 1313.1,1220.83 1313.35,1223.93 C1314.06,1232.85 1315.2,1241.73 1316.04,1250.64 C1317.71,1268.3 1319.35,1285.97 1320.86,1303.64 C1322.06,1317.7 1323.03,1331.77 1324.14,1345.82 C1325.47,1362.69 1326.8,1379.56 1328.24,1396.41 C1328.74,1402.36 1328.88,1402.35 1323.97,1402.22" fill="#797979"/>
    <path d="M1161.58,1223.59 C1175.35,1224.14 1189.12,1224.74 1202.9,1225.2 C1205.19,1225.27 1206.07,1225.99 1206.27,1228.34 C1207.12,1238.42 1208.18,1248.48 1209.13,1258.55 C1210.73,1275.56 1212.38,1292.57 1213.87,1309.58 C1215.05,1322.98 1216.03,1336.39 1217.1,1349.79 C1218.23,1363.85 1219.31,1377.91 1220.55,1391.96 C1220.75,1394.2 1221.35,1395.84 1217.97,1395.69 C1205.52,1395.14 1193.08,1393.82 1180.61,1394.28 C1176.81,1394.43 1175.53,1392.64 1175.31,1389.45 C1174,1370.57 1171.23,1351.85 1169.06,1333.07 C1167.1,1316.11 1164.65,1299.2 1162.4,1282.28 C1160,1264.2 1157.68,1246.1 1155.12,1228.05 C1154.26,1221.92 1158.27,1223.29 1161.58,1223.59" fill="#797979"/>
    <path d="M1198.17,1409.64 C1205.15,1410.01 1212.12,1410.46 1219.09,1410.7 C1221.46,1410.78 1222.1,1411.7 1222.27,1413.97 C1224.56,1443.97 1226.92,1473.97 1229.35,1503.96 C1229.52,1506.1 1229.15,1507.74 1227.82,1509.44 C1224.33,1513.92 1222.48,1519.01 1223.04,1524.76 C1223.23,1526.71 1222.97,1527.87 1220.7,1528.21 C1197.02,1531.85 1173.37,1535.71 1149.27,1533.15 C1144.64,1532.66 1140.04,1531.78 1135.83,1529.64 C1129.65,1526.51 1128.84,1522.58 1133.33,1517.39 C1137.19,1512.91 1142.23,1509.99 1147.31,1507.12 C1155.15,1502.69 1163.45,1499.25 1172,1496.63 C1177.27,1495.02 1179.77,1491.95 1180.41,1486.84 C1182.14,1473.07 1181.37,1459.28 1180.48,1445.51 C1179.77,1434.56 1178.93,1423.61 1177.88,1412.69 C1177.6,1409.7 1178.32,1409.02 1181.22,1409.14 C1186.86,1409.39 1192.52,1409.21 1198.17,1409.21 C1198.17,1409.36 1198.17,1409.5 1198.17,1409.64" fill="#FEF8EA"/>
    <path d="M1278.57,1533.92 C1269.41,1534.21 1260.28,1534.02 1251.24,1532.23 C1247.8,1531.55 1244.45,1530.57 1241.51,1528.58 C1237.56,1525.92 1236.96,1522.73 1239.66,1518.83 C1242.18,1515.2 1245.71,1512.68 1249.36,1510.33 C1258.64,1504.35 1268.7,1499.92 1279.21,1496.79 C1285.21,1495 1287.43,1491.26 1288.15,1485.7 C1289.51,1475.25 1289.13,1464.78 1288.47,1454.32 C1287.71,1442.2 1286.9,1430.09 1285.88,1417.99 C1285.62,1414.96 1286.04,1413.83 1289.39,1414.16 C1301.97,1415.4 1314.57,1416.44 1327.17,1417.47 C1329.46,1417.66 1330.15,1418.66 1330.32,1420.87 C1332.53,1449.56 1334.84,1478.24 1337.12,1506.92 C1337.51,1511.89 1337.6,1516.91 1338.35,1521.83 C1338.92,1525.63 1337.27,1526.62 1333.99,1527.19 C1315.63,1530.37 1297.22,1533.1 1278.57,1533.92" fill="#FEF8EA"/>
    <path d="M918.426,835.44 C907.773,835.44 897.117,835.313 886.467,835.515 C883.147,835.578 882.235,834.546 882.262,831.293 C882.404,813.982 882.394,796.669 882.267,779.358 C882.245,776.306 883.147,775.366 886.219,775.39 C903.364,775.52 920.51,775.452 937.656,775.452 C937.822,775.452 937.989,775.446 938.155,775.454 C941.313,775.597 955.004,789.687 955.006,792.827 C955.015,805.644 954.914,818.463 955.076,831.279 C955.117,834.514 954.223,835.578 950.885,835.516 C940.069,835.313 929.246,835.44 918.426,835.44" fill="#94D1CC"/>
    <path d="M918.795,725.471 C929.452,725.471 940.109,725.575 950.763,725.407 C953.874,725.358 955.57,725.993 955.016,729.463 C954.886,730.275 954.93,731.131 955.008,731.956 C955.496,737.148 955.098,741.211 948.836,743.448 C943.389,745.394 940.105,750.583 938.645,756.291 C937.956,758.988 936.727,759.535 934.196,759.518 C918.213,759.412 902.228,759.395 886.245,759.526 C883.275,759.551 882.184,758.871 882.264,755.68 C882.487,746.861 882.49,738.029 882.264,729.21 C882.181,725.937 883.435,725.375 886.328,725.414 C897.149,725.557 907.973,725.471 918.795,725.471" fill="#FEFEFE"/>
    <path d="M1205.1,937.336 C1229.24,937.428 1253.39,937.668 1277.52,936.513 C1279.05,936.44 1281.62,935.429 1281.27,938.73 C1281.05,940.877 1281.71,943.27 1277.95,943.536 C1263,944.591 1248.06,945.828 1233.16,947.326 C1219.18,948.731 1205.15,945.05 1191.46,946.815 C1174.63,948.983 1158.98,943.642 1142.74,942.516 C1140.48,942.36 1138.55,942.368 1139.02,938.939 C1139.46,935.754 1140.99,935.271 1143.71,935.442 C1164.15,936.731 1184.62,937.184 1205.1,937.336" fill="#B9DEFE"/>
    <path d="M967.33,805.425 C967.33,803.597 967.436,801.762 967.308,799.944 C967.064,796.489 967.173,793.734 971.546,792.484 C974.588,791.614 975.636,788.393 975.429,785.119 C975.217,781.781 973.477,779.528 970.453,778.291 C965.352,776.204 960.405,773.91 956.681,769.636 C954.239,766.832 952.754,763.701 954.366,760.058 C955.893,756.605 959.12,755.622 962.603,755.482 C978.837,754.83 997.454,777.75 992.982,793.252 C989.557,805.125 980.34,811.497 969.566,816.051 C967.937,816.739 967.097,816.346 967.146,814.404 C967.221,811.413 967.166,808.418 967.166,805.424 C967.221,805.424 967.275,805.424 967.33,805.425" fill="#FEF8EA"/>
    <path d="M1217.72,703.471 C1203.81,703.507 1192.84,699.747 1186.37,687.492 C1185.78,686.372 1184.49,685.11 1185.26,683.858 C1186.04,682.596 1187.69,683.332 1188.92,683.434 C1207.47,684.973 1226.05,685.561 1244.64,684.275 C1248.68,683.996 1248.74,685.342 1247.14,688.377 C1241.94,698.22 1233.18,702.094 1222.74,703.222 C1220.76,703.435 1218.76,703.423 1217.72,703.471" fill="#FEF8EA"/>
    <path d="M1197.41,1004.96 C1196.52,1015.14 1195.66,1025.32 1194.73,1035.5 C1192.22,1063.01 1189.65,1090.52 1187.16,1118.03 C1186.75,1122.6 1183.74,1124.33 1179.63,1122.29 C1177.74,1121.36 1178.83,1119.99 1178.95,1118.85 C1180.72,1101.97 1182.52,1085.08 1184.39,1068.21 C1186.2,1051.83 1188.41,1035.49 1189.82,1019.08 C1190.33,1013.11 1193.55,1009.17 1197.41,1004.96" fill="#B9DEFE"/>
    <path d="M1213.35,1004.98 C1216.52,1009.26 1218.89,1012.39 1220.06,1016.26 C1227.17,1039.8 1234.26,1063.34 1241.45,1086.85 C1242.21,1089.35 1242.72,1091.04 1239.37,1091.96 C1236.3,1092.8 1235.03,1092.17 1234.13,1089.04 C1227.3,1065.42 1220.3,1041.84 1213.35,1018.25 C1212.18,1014.29 1213.35,1010.36 1213.35,1004.98" fill="#B9DEFE"/>
    <path d="M1224.56,977.725 C1233.79,986.363 1242.33,994.41 1250.95,1002.38 C1252.21,1003.54 1252.11,1004.27 1251.22,1005.67 C1242.55,1019.28 1242.41,1019.3 1233.58,1006.07 C1232.57,1004.55 1231.8,1002.82 1230.57,1001.51 C1224.49,994.988 1223.96,987.037 1224.56,977.725" fill="#B9DEFE"/>
    <path d="M1182.89,979.937 C1184.82,988.181 1184.81,995.088 1179.31,1001.53 C1175.24,1006.29 1172.27,1011.98 1168.42,1017.85 C1164.89,1013.46 1161.62,1009.34 1158.28,1005.29 C1157.3,1004.09 1157.62,1003.39 1158.64,1002.44 C1166.57,995.135 1174.46,987.777 1182.89,979.937" fill="#B9DEFE"/>
    <path d="M1176.16,963.496 C1173.22,968.068 1169.88,969.044 1165.18,968.589 C1153.78,967.486 1142.32,967.103 1130.89,966.415 C1128.85,966.293 1126.05,966.729 1127.26,963.199 C1128.1,960.768 1126.33,956.352 1131.96,957.216 C1146.51,959.45 1161.11,961.38 1176.16,963.496" fill="#B9DDFE"/>
    <path d="M839.198,947.219 C839.666,950.385 842.03,953.066 840.575,956.777 C838.276,962.645 832.497,965.894 826.618,963.917 C821.355,962.147 818.376,955.229 820.552,949.83 C822.627,944.684 829.246,942.229 834.773,944.537 C835.531,944.853 836.335,945.056 837.118,945.312 C837.811,945.947 838.504,946.583 839.198,947.219" fill="#BFBFBF"/>
    <path d="M680.05,894.151 C689.751,894.768 693.962,900.131 691.165,908.089 C689.637,912.434 686.153,914.437 682.186,914.906 C678.03,915.398 674.385,913.342 672.36,909.478 C670.384,905.705 670.46,901.793 672.928,898.188 C673.854,896.836 675.122,895.718 676.235,894.492 C677.507,894.379 678.778,894.265 680.05,894.151" fill="#BFBFBF"/>
    <path d="M739.189,897.312 C742.074,901.233 742.792,905.492 740.13,909.655 C737.798,913.303 734.171,915.584 729.709,914.842 C724.932,914.048 721.647,910.952 720.725,906.115 C719.791,901.219 721.875,897.517 726.296,895.175 C730.68,895.366 734.992,895.989 739.189,897.312" fill="#BFBFBF"/>
    <path d="M1233.11,963.387 C1248.02,962.128 1262.23,960.961 1276.43,959.687 C1278.31,959.518 1279.59,959.83 1279.02,961.888 C1278.48,963.87 1280.74,967.328 1276.25,967.477 C1269.11,967.714 1261.96,968.088 1254.82,968.392 C1251.16,968.547 1247.41,968.203 1243.87,968.929 C1238.8,969.971 1236.32,967.049 1233.11,963.387" fill="#B9DDFD"/>
    <path d="M870.183,1106.16 C868.512,1101.13 869.776,1097.12 874.003,1094.02 C877.52,1091.44 882.754,1091.64 886.549,1094.5 C889.85,1096.98 891.186,1102.51 889.421,1106.71 C888.781,1108.24 887.94,1109.68 887.191,1111.16 C881.522,1109.49 875.853,1107.83 870.183,1106.16" fill="#BFBFBF"/>
    <path d="M887.168,1009.31 C885.013,1013.95 880.348,1015.46 875.277,1013.15 C870.402,1010.94 867.823,1004.51 869.97,999.792 C871.569,996.278 874.132,993.904 878.085,993.3 C881.629,998.343 884.538,1003.75 887.168,1009.31" fill="#BFBFBF"/>
    <path d="M642.175,901.137 C642.677,906.365 641.925,911.01 636.55,913.607 C630.282,916.636 624.629,914.225 622.264,907.471 C628.753,904.894 635.221,902.25 642.175,901.137" fill="#BFBFBF"/>
    <path d="M1208.14,973.301 C1208.19,974.461 1208.54,975.709 1208.23,976.762 C1207.7,978.546 1210.28,981.975 1205.94,981.85 C1202.69,981.756 1198.51,982.677 1199.18,976.836 C1199.48,974.231 1199.1,971.536 1198.92,968.889 C1198.54,963.013 1200.91,961.252 1206.53,963.113 C1208.12,963.638 1207.98,964.739 1208,965.837 C1208.06,968.324 1208.02,970.813 1208.02,973.301 C1208.06,973.301 1208.1,973.301 1208.14,973.301" fill="#B9DCFC"/>
    <path d="M820.221,1103.14 C820.264,1096.71 823.3,1093.02 829.158,1092.28 C835.003,1091.55 839.04,1094.85 841.107,1102.07 C834.145,1102.42 827.183,1102.78 820.221,1103.14" fill="#BFBFBF"/>
    <path d="M623.339,1145.99 C626.615,1141.97 630.656,1140.57 635.61,1142.5 C640.786,1144.52 642.315,1147.59 642.158,1155.49 C635.57,1152.95 629.513,1149.35 623.339,1145.99" fill="#BFBFBE"/>
    <path d="M487.358,1097.25 C487.779,1096.22 488.2,1095.19 488.731,1093.88 C492.791,1096.13 493.487,1099.75 493.276,1103.86 C493.07,1107.85 491.48,1110.82 487.51,1112.17 C487.459,1107.19 487.409,1102.22 487.358,1097.25" fill="#BEBEBE"/>
    <path d="M786.184,912.309 C782.874,916.438 778.913,915.307 775.28,913.205 C772.834,911.79 769.754,910.129 771.279,906.182 C776.444,907.745 781.416,909.779 786.184,912.309" fill="#BEBDBD"/>
    <path d="M723.191,1148.27 C722.621,1148.1 721.643,1148.12 721.971,1147.24 C723.738,1142.46 730.254,1140.38 735.055,1142.99 C731.1,1144.75 727.146,1146.51 723.191,1148.27" fill="#BBBAB9"/>
    <path d="M1157.93,23.228 C1157.31,22.917 1156.68,22.604 1156.06,22.292 C1159.25,20.976 1162.62,20.642 1166.03,20.532 C1163.57,22.153 1160.67,22.459 1157.93,23.228" fill="#DCCDAE"/>
    <path d="M701.134,1396.22 C776.767,1396.22 852.4,1396.23 928.033,1396.2 C931.891,1396.19 935.388,1396.56 937.151,1400.69 C939.369,1405.88 936.343,1411.22 930.573,1412.12 C929.269,1412.33 927.913,1412.21 926.581,1412.22 C775.982,1412.22 625.383,1412.22 474.783,1412.22 C470.57,1412.22 466.394,1412.31 464.252,1407.48 C461.859,1402.08 464.825,1396.77 470.739,1396.25 C472.228,1396.12 473.736,1396.22 475.235,1396.22 C550.535,1396.22 625.835,1396.22 701.134,1396.22" fill="#B9DEFE"/>
    <path d="M998.136,308.807 C993.526,308.452 990.387,306.541 989.751,302.056 C989.138,297.731 991.057,294.609 995.269,293.178 C1006.93,289.216 1018.4,284.79 1029.64,279.742 C1069.67,261.765 1106.13,238.001 1140.74,211.26 C1163.03,194.044 1184.4,175.772 1204.3,155.812 C1208.41,151.692 1213.28,151.442 1216.69,154.891 C1219.97,158.217 1219.87,163.125 1216.01,166.866 C1159.17,221.974 1096.81,269.112 1023.21,299.937 C1016.32,302.824 1009.19,305.169 1002.16,307.716 C1000.76,308.222 999.28,308.502 998.136,308.807" fill="#6E4100"/>
    <path d="M1026.29,521.445 C1013.36,520.601 999.847,517.867 989.407,507.707 C977.717,496.329 973.375,482.392 977.726,466.303 C981.994,450.515 990.817,437.891 1005.27,430.036 C1024.24,419.726 1046.51,424.019 1060.2,442.473 C1067.16,451.862 1071.59,462.4 1072.73,474.025 C1073.21,478.9 1072.27,483.964 1070.2,488.556 C1063.13,504.19 1052.88,516.415 1035.33,520.782 C1032.67,521.444 1030.04,521.147 1026.29,521.445" fill="#FFD5BA"/>
    <path d="M1408.18,521.329 C1379.47,521.333 1356.79,502.297 1357.21,477.855 C1357.66,450.9 1379.17,424.724 1406.91,424.634 C1435.89,424.54 1452.09,450.906 1453.6,475.222 C1454.94,496.656 1430.19,523.5 1408.18,521.329" fill="#FFD5BA"/>
    <path d="M1060.32,429.525 C1061.09,418.35 1065.39,408.876 1074.37,401.99 C1077.18,399.831 1077.14,398.515 1075.08,395.896 C1070.83,390.488 1069.26,384.044 1068.98,377.245 C1068.84,373.544 1069.58,370.431 1074.06,370.221 C1078.35,370.02 1079.9,372.686 1080.03,376.538 C1080.21,382.02 1081.66,386.996 1085.4,391.201 C1087.53,393.589 1089.75,394.627 1093.18,394.231 C1109.51,392.346 1123.73,402.626 1127.25,418.414 C1128.01,421.812 1127.46,424.729 1124.79,426.995 C1122.45,428.98 1119.68,429.337 1116.8,428.318 C1114.28,427.425 1112.89,425.54 1111.92,423.042 C1108.03,413.026 1103.25,409.285 1095.55,409.939 C1086.42,410.713 1078.76,417.595 1076.9,426.744 C1076.63,428.044 1076.43,429.368 1076.34,430.69 C1075.9,436.761 1073.02,439.947 1068.08,439.752 C1063.08,439.554 1060.11,435.644 1060.32,429.525" fill="#6E4100"/>
    <path d="M1368.62,430.675 C1368.58,435.987 1365.38,439.657 1360.71,439.755 C1356.06,439.852 1353.16,436.923 1352.59,431.555 C1351.32,419.605 1345.43,412.168 1335.76,410.305 C1327.95,408.798 1322.03,411.739 1318.61,418.921 C1317.9,420.411 1317.51,422.05 1316.86,423.572 C1315.02,427.856 1310.88,429.807 1306.69,428.414 C1302.58,427.047 1300.41,422.911 1301.69,418.369 C1303.82,410.827 1307.53,404.191 1314.1,399.646 C1316.37,398.081 1316.8,397.084 1315.14,394.707 C1311.33,389.228 1309.9,382.961 1309.93,376.305 C1309.95,372.852 1311.02,370.424 1314.88,370.2 C1318.91,369.966 1320.72,372.343 1320.89,375.945 C1321.13,381.218 1322.08,386.151 1325.57,390.343 C1327.47,392.616 1329.54,393.795 1332.75,393.923 C1353.01,394.734 1368.77,411.022 1368.62,430.675" fill="#6E4100"/>
    <path d="M1220.51,585.25 C1203.97,584.812 1189.47,578.854 1177.78,566.398 C1175.45,563.91 1173.98,561.232 1175.61,557.868 C1177.61,553.727 1182.52,553.689 1186.3,557.782 C1195.89,568.151 1207.79,573.255 1221.83,573.115 C1233.68,572.997 1243.94,568.819 1252.06,560.031 C1254.44,557.459 1257,555.95 1260.42,557.416 C1264.46,559.152 1264.95,564.001 1261.41,567.837 C1250.51,579.643 1236.82,585.023 1220.51,585.25" fill="#6E4100"/>
    <path d="M1332.45,243.802 C1343.7,243.994 1352.58,248.643 1358.93,257.981 C1361.09,261.155 1362.06,264.648 1358.35,267.152 C1354.7,269.626 1352.03,267.692 1349.75,264.293 C1343.68,255.237 1334.27,252.652 1324.06,256.987 C1320.75,258.395 1317.77,258.359 1315.99,254.829 C1314.23,251.315 1315.85,248.794 1319.05,247.067 C1323.23,244.813 1327.71,243.813 1332.45,243.802" fill="#6E4100"/>
    <path d="M1210.01,427.185 C1212.14,427.161 1213.93,427.94 1215.15,429.69 C1216.94,432.268 1218.79,434.828 1220.31,437.567 C1222.07,440.743 1221.38,443.78 1218.52,445.948 C1215.6,448.162 1212.36,447.862 1210.04,445.152 C1207.7,442.418 1205.64,439.316 1204.08,436.077 C1201.99,431.745 1205.27,427.133 1210.01,427.185" fill="#6F4300"/>
    <path d="M671.177,1102.58 C671.214,1096.14 675.347,1092.15 681.87,1092.26 C687.36,1092.36 692.268,1097.45 692.146,1102.93 C692.021,1108.48 687.062,1113.3 681.525,1113.25 C675.041,1113.19 671.138,1109.17 671.177,1102.58" fill="#BFBFBF"/>
    <path d="M572.189,1102.74 C572.192,1096.25 576.239,1092.22 582.725,1092.26 C588.228,1092.29 593.174,1097.27 593.163,1102.77 C593.152,1108.27 588.195,1113.24 582.693,1113.25 C576.211,1113.27 572.185,1109.24 572.189,1102.74" fill="#BFBFBF"/>
    <path d="M731.037,964.297 C725.343,964.252 720.201,959.383 720.302,954.132 C720.411,948.518 725.646,943.313 731.186,943.311 C736.687,943.309 741.92,948.675 741.854,954.25 C741.79,959.74 736.835,964.342 731.037,964.297" fill="#BFBFBF"/>
    <path d="M731.011,993.247 C736.815,993.195 741.766,997.769 741.855,1003.27 C741.945,1008.83 736.712,1014.22 731.212,1014.23 C725.677,1014.25 720.431,1009.06 720.302,1003.44 C720.181,998.185 725.317,993.299 731.011,993.247" fill="#BFBFBF"/>
    <path d="M731.145,1063.28 C725.449,1063.27 720.286,1058.48 720.301,1053.23 C720.318,1047.64 725.517,1042.37 731.078,1042.3 C736.612,1042.23 741.822,1047.47 741.853,1053.13 C741.883,1058.59 736.922,1063.3 731.145,1063.28" fill="#BFBFBF"/>
    <path d="M532.449,993.247 C538.651,993.195 543.115,997.316 543.205,1003.18 C543.296,1009.08 538.345,1014.27 532.649,1014.22 C527.078,1014.18 522.176,1009.2 522.22,1003.63 C522.27,997.29 526.202,993.3 532.449,993.247" fill="#BFBFBF"/>
    <path d="M642.224,1003.3 C642.233,1009.28 637.369,1014.29 631.627,1014.22 C626.096,1014.16 621.368,1009.29 621.24,1003.53 C621.109,997.606 625.872,993.189 632.32,993.248 C638.392,993.304 642.214,997.182 642.224,1003.3" fill="#BFBFBF"/>
    <path d="M780.469,964.297 C774.201,964.256 770.264,960.3 770.19,953.965 C770.124,948.38 774.979,943.402 780.568,943.322 C786.252,943.242 791.232,948.403 791.174,954.316 C791.117,960.166 786.645,964.336 780.469,964.297" fill="#BFBFBF"/>
    <path d="M770.189,1003.71 C770.199,997.174 774.241,993.2 780.833,993.247 C786.878,993.291 791.339,997.753 791.174,1003.59 C791.012,1009.34 786.215,1014.21 780.702,1014.22 C775.15,1014.24 770.18,1009.27 770.189,1003.71" fill="#BFBFBF"/>
    <path d="M780.633,1063.28 C774.107,1063.28 770.098,1059.19 770.19,1052.62 C770.267,1047.07 775.379,1042.15 780.904,1042.31 C786.455,1042.47 791.132,1047.4 791.174,1053.14 C791.217,1058.98 786.737,1063.29 780.633,1063.28" fill="#BFBFBF"/>
    <path d="M532.701,1063.28 C526.159,1063.29 522.147,1059.22 522.221,1052.65 C522.282,1047.1 527.365,1042.18 532.898,1042.31 C538.443,1042.44 543.141,1047.36 543.205,1053.1 C543.271,1058.94 538.795,1063.28 532.701,1063.28" fill="#BFBFBF"/>
    <path d="M642.224,1053.09 C642.264,1059.22 638.489,1063.17 632.489,1063.28 C626.424,1063.39 621.174,1058.64 621.24,1053.11 C621.309,1047.37 625.969,1042.47 631.502,1042.31 C637.216,1042.15 642.185,1047.14 642.224,1053.09" fill="#BFBFBF"/>
    <path d="M890.192,1053.34 C890.147,1059.42 886.287,1063.26 880.199,1063.28 C874.394,1063.31 869.278,1058.68 869.209,1053.35 C869.131,1047.43 874.038,1042.28 879.73,1042.31 C885.48,1042.34 890.237,1047.35 890.192,1053.34" fill="#BFBFBF"/>
    <path d="M642.223,954.347 C642.181,960.424 638.326,964.266 632.24,964.296 C626.434,964.324 621.315,959.705 621.24,954.37 C621.156,948.45 626.056,943.299 631.751,943.32 C637.5,943.341 642.265,948.358 642.223,954.347" fill="#BFBFBF"/>
    <path d="M681.083,993.247 C687.076,993.201 692.116,997.945 692.151,1003.67 C692.182,1008.78 686.572,1014.33 681.478,1014.22 C675.7,1014.1 671.191,1009.51 671.176,1003.74 C671.158,997.2 674.843,993.296 681.083,993.247" fill="#BFBFBF"/>
    <path d="M820.157,1003.43 C820.213,996.981 824.022,993.19 830.383,993.247 C836.299,993.301 841.337,998.337 841.125,1003.99 C840.94,1008.93 835.533,1014.21 830.638,1014.23 C824.747,1014.24 820.105,1009.46 820.157,1003.43" fill="#BFBFBF"/>
    <path d="M572.188,953.644 C572.234,947.973 576.946,943.32 582.644,943.319 C587.768,943.319 593.295,948.949 593.157,954.029 C593.001,959.794 587.978,964.392 581.941,964.296 C575.759,964.198 572.135,960.24 572.188,953.644" fill="#BFBFBF"/>
    <path d="M572.188,1052.7 C572.221,1046.99 576.854,1042.36 582.578,1042.31 C587.724,1042.26 593.255,1047.83 593.161,1052.95 C593.056,1058.69 588.016,1063.36 582.007,1063.28 C575.803,1063.21 572.151,1059.27 572.188,1052.7" fill="#BFBFBF"/>
    <path d="M820.157,1052.74 C820.18,1046.98 824.715,1042.4 830.495,1042.31 C835.623,1042.23 841.189,1047.77 841.131,1052.9 C841.066,1058.63 836.021,1063.34 830.024,1063.28 C823.802,1063.22 820.131,1059.3 820.157,1052.74" fill="#BFBFBF"/>
    <path d="M671.176,1052.92 C670.187,1046.43 677.171,1042.3 681.842,1042.33 C686.78,1042.37 692.094,1047.82 692.151,1052.73 C692.216,1058.43 687.179,1063.29 681.216,1063.28 C674.916,1063.28 671.19,1059.43 671.176,1052.92" fill="#BFBFBF"/>
    <path d="M642.221,1102.54 C642.321,1108.54 638.108,1113.04 632.193,1113.25 C626.401,1113.46 621.226,1108.48 621.25,1102.72 C621.273,1097.15 626.201,1092.25 631.763,1092.26 C637.71,1092.27 642.122,1096.61 642.221,1102.54" fill="#BFBFBF"/>
    <path d="M780.581,1113.25 C774.914,1113.21 770.182,1108.43 770.189,1102.74 C770.197,1096.58 774.754,1092.14 780.931,1092.26 C786.573,1092.37 791.26,1097.25 791.18,1102.93 C791.102,1108.57 786.255,1113.29 780.581,1113.25" fill="#BFBFBF"/>
    <path d="M681.214,964.296 C674.916,964.291 671.57,960.413 671.069,953.938 C670.565,947.426 677.156,943.312 681.844,943.347 C686.782,943.384 692.095,948.838 692.151,953.744 C692.215,959.44 687.177,964.301 681.214,964.296" fill="#BFBFBF"/>
    <path d="M543.212,1102.84 C543.173,1108.49 538.367,1113.25 532.702,1113.25 C527.029,1113.25 522.252,1108.5 522.22,1102.83 C522.185,1096.64 526.681,1092.18 532.872,1092.26 C538.522,1092.33 543.251,1097.17 543.212,1102.84" fill="#BFBFBF"/>
    <path d="M671.176,1151.94 C671.274,1145.84 675.931,1141.46 682.165,1141.59 C687.23,1141.7 692.135,1146.97 692.112,1152.28 C692.09,1157.28 686.785,1162.88 682.048,1162.91 C675.555,1162.94 671.073,1158.42 671.176,1151.94" fill="#BFBFBF"/>
    <path d="M572.188,1003.09 C572.323,996.792 576.311,993.073 582.747,993.248 C588.391,993.401 593.24,998.323 593.162,1003.82 C593.09,1008.94 587.38,1014.42 582.337,1014.21 C576.272,1013.96 572.055,1009.34 572.188,1003.09" fill="#BFBFBF"/>
    <path d="M741.238,1102.62 C741.271,1109.08 737.576,1113.09 731.445,1113.25 C725.309,1113.4 721.223,1109.4 721.142,1103.14 C721.055,1096.39 724.849,1092.28 731.168,1092.27 C737.315,1092.25 741.205,1096.25 741.238,1102.62" fill="#BFBFBF"/>
    <path d="M242.637,1315.62 C125.949,1315.62 31.935,1221.14 31.877,1103.96 C31.82,988.189 127.109,891.562 246.273,893.276 C361.264,894.93 454.576,989.021 454.262,1104.33 C453.941,1222.08 360.058,1315.62 242.637,1315.62" fill="#6E4100"/>
    <path d="M1441.99,922.113 C1443.29,940.19 1440.85,957.192 1434.08,973.45 C1427.94,988.186 1419.13,1000.95 1405.56,1009.84 C1384.96,1023.33 1361.14,1019.41 1346.01,1000.01 C1334.1,984.753 1330,966.922 1330.18,948.012 C1330.41,923.849 1336.98,901.639 1352.67,882.837 C1363.6,869.749 1377.13,861.395 1395,862.278 C1400.59,862.554 1405.89,864.02 1410.73,866.688 C1413.19,868.052 1414.15,867.631 1415.82,865.546 C1417.88,862.961 1415.59,862.574 1414.43,861.589 C1411.28,858.928 1408.84,855.695 1408.2,851.641 C1405.72,835.871 1417.92,817.757 1433.54,813.73 C1451.7,809.049 1477.13,819.858 1486.26,836.224 C1489.44,841.909 1490.8,847.878 1489.23,854.465 C1488.21,858.701 1489.32,863.075 1489.46,867.387 C1489.87,879.922 1489.36,892.357 1485.17,904.35 C1478.43,923.651 1464.29,930.371 1445.1,923.252 C1444.34,922.969 1443.57,922.692 1441.99,922.113" fill="#6E4100"/>
    <path d="M407.575,1000.041 C421.06,1020.01 429.901,1041.98 434.28,1065.57 C446.984,1134 429.11,1193.71 380.266,1243.09 C316.969,1307.08 216.438,1318.08 140.584,1270.58 C139.471,1269.88 138.441,1269.05 137.372,1268.29 C138.964,1265.69 141.431,1263.91 143.537,1261.8 C229.29,1176 315.063,1090.22 400.887,1004.49 C402.756,1002.63 404.085,999.61 407.575,1000.041" fill="#B9DEFE"/>
    <path d="M66,1186.23 C55.205,1163.95 48.978,1140.36 48.298,1115.7 C46.015,1032.9 81.243,970.427 153.947,931.324 C208.611,901.924 265.812,901.931 322.9,926.354 C323.342,926.543 323.707,926.911 324.108,927.195 C323.604,930.096 321.145,931.53 319.313,933.365 C237.073,1015.66 154.806,1097.93 72.51,1180.16 C70.417,1182.26 68.752,1184.84 66,1186.23" fill="#B9DEFE"/>
    <path d="M66,1186.23 C66.346,1184.06 68.065,1182.88 69.458,1181.48 C153.1,1097.82 236.75,1014.17 320.409,930.533 C321.582,929.36 322.875,928.306 324.11,927.195 C338.35,933.322 351.462,941.297 363.384,951.218 C363.591,954.417 360.902,955.754 359.115,957.544 C299.199,1017.53 239.239,1077.48 179.285,1137.44 C151.487,1165.23 123.705,1193.05 95.857,1220.79 C94.105,1222.54 92.753,1225.4 89.382,1224.44 C79.887,1212.75 72.006,1200.06 66,1186.23" fill="#FEFEFE"/>
    <path d="M89.382,1224.44 C91.387,1224.16 92.465,1222.56 93.74,1221.29 C182.648,1132.4 271.548,1043.5 360.438,954.586 C361.49,953.534 362.404,952.343 363.383,951.217 C373.499,958.672 382.611,967.176 390.417,977.048 C390.772,980.295 388.03,981.614 386.255,983.392 C343.418,1026.31 300.529,1069.18 257.649,1112.06 C212.414,1157.3 167.183,1202.54 121.923,1247.75 C120.189,1249.48 118.794,1251.71 116.178,1252.38 C105.941,1244.32 97.191,1234.83 89.382,1224.44" fill="#B9DEFE"/>
    <path d="M116.178,1252.38 C117.617,1250.77 118.983,1249.1 120.504,1247.57 C209.047,1159.01 297.604,1070.46 386.145,981.888 C387.663,980.369 388.996,978.665 390.416,977.048 C397.085,984.005 402.806,991.67 407.576,1000.042 C405.382,1001.05 403.99,1002.99 402.356,1004.62 C315.832,1091.12 229.326,1177.63 142.793,1264.12 C141.187,1265.72 139.946,1267.9 137.371,1268.29 C129.722,1263.76 122.573,1258.57 116.178,1252.38" fill="#E9F4FE"/>
    <path d="M1426.34,931.404 C1425.9,951.906 1420.71,970.773 1407.39,986.895 C1404.71,990.127 1401.67,992.938 1398.28,995.368 C1383.73,1005.8 1367.74,1003.12 1357.4,988.411 C1348.84,976.224 1345.9,962.318 1346.18,947.747 C1346.59,926.505 1352.45,907.047 1366.97,890.955 C1373.13,884.139 1380.56,879.042 1390.05,878.337 C1403.79,877.318 1411.95,885.635 1418.11,896.338 C1424.32,907.111 1426.37,919.042 1426.34,931.404" fill="#94D1CC"/>
    <path d="M1443.15,827.483 C1453.63,828.396 1462.88,832.101 1470.17,839.846 C1473.25,843.106 1475.08,846.315 1473.64,851.741 C1472.31,856.739 1474.17,862.547 1474.4,868.008 C1474.85,878.346 1474.5,888.631 1471.22,898.584 C1469.17,904.829 1466.35,910.968 1458.71,910.897 C1450.7,910.822 1444.03,907.042 1439.38,900.26 C1438,898.247 1438.81,896.994 1440.94,896.088 C1445.23,894.268 1447.05,890.994 1445.72,886.448 C1444.55,882.402 1440.97,880.919 1435.55,881.702 C1432.14,882.195 1427.36,883.562 1425.92,880.252 C1424.28,876.442 1428.47,873.579 1431.42,871.191 C1434.17,868.956 1437.41,867.711 1440.92,867.09 C1445.34,866.309 1448.35,863.993 1448.16,859.111 C1447.96,854.202 1444.74,852.189 1440.26,851.842 C1436.45,851.547 1432.62,851.533 1428.81,851.25 C1423.51,850.857 1422.82,849.874 1423.89,844.703 C1426.24,833.301 1432.92,827.33 1443.15,827.483" fill="#FEF8EA"/>
  </g>
</svg>
